{
  "accessors": [
    {
      "bufferView": 2,
      "componentType": 5126,
      "count": 10403,
      "max": [
        17.201705932617188,
        14.055076599121094,
        13.89116096496582
      ],
      "min": [
        -2.6805639266967773,
        -9.068756103515625,
        -2.263185501098633
      ],
      "type": "VEC3"
    },
    {
      "bufferView": 2,
      "byteOffset": 124836,
      "componentType": 5126,
      "count": 10403,
      "max": [
        1.0,
        1.0,
        1.0
      ],
      "min": [
        -1.0,
        -1.0,
        -1.0
      ],
      "type": "VEC3"
    },
    {
      "bufferView": 1,
      "componentType": 5126,
      "count": 10403,
      "max": [
        0.9978557825088501,
        0.9952694773674011
      ],
      "min": [
        0.0016621943796053529,
        0.0024659864138811827
      ],
      "type": "VEC2"
    },
    {
      "bufferView": 0,
      "componentType": 5125,
      "count": 19524,
      "type": "SCALAR"
    },
    {
      "bufferView": 2,
      "byteOffset": 249672,
      "componentType": 5126,
      "count": 4,
      "max": [
        2.2817678451538086,
        9.155858993530273,
        6.428165435791016
      ],
      "min": [
        -0.6522903442382813,
        9.155858993530273,
        3.422271728515625
      ],
      "type": "VEC3"
    },
    {
      "bufferView": 2,
      "byteOffset": 249720,
      "componentType": 5126,
      "count": 4,
      "max": [
        0.0,
        -1.0,
        0.0
      ],
      "min": [
        0.0,
        -1.0,
        0.0
      ],
      "type": "VEC3"
    },
    {
      "bufferView": 1,
      "byteOffset": 83224,
      "componentType": 5126,
      "count": 4,
      "max": [
        -0.6902185678482056,
        0.8607877492904663
      ],
      "min": [
        -0.6902185678482056,
        0.8607877492904663
      ],
      "type": "VEC2"
    },
    {
      "bufferView": 0,
      "byteOffset": 78096,
      "componentType": 5125,
      "count": 6,
      "type": "SCALAR"
    },
    {
      "bufferView": 2,
      "byteOffset": 249768,
      "componentType": 5126,
      "count": 12,
      "max": [
        17.201702117919922,
        12.677471160888672,
        -1.0205433368682861
      ],
      "min": [
        -1.4379186630249023,
        -9.068756103515625,
        -1.0205433368682861
      ],
      "type": "VEC3"
    },
    {
      "bufferView": 2,
      "byteOffset": 249912,
      "componentType": 5126,
      "count": 12,
      "max": [
        6.913304595457248e-09,
        0.0,
        1.0
      ],
      "min": [
        0.0,
        0.0,
        1.0
      ],
      "type": "VEC3"
    },
    {
      "bufferView": 1,
      "byteOffset": 83256,
      "componentType": 5126,
      "count": 12,
      "max": [
        0.49554872512817383,
        0.49633485078811646
      ],
      "min": [
        0.0026154061779379845,
        0.0034011779353022575
      ],
      "type": "VEC2"
    },
    {
      "bufferView": 0,
      "byteOffset": 78120,
      "componentType": 5125,
      "count": 18,
      "type": "SCALAR"
    }
  ],
  "asset": {
    "extras": {
      "author": "IsaacTheMaverick (https://sketchfab.com/IsaacTheMaverick)",
      "license": "CC-BY-4.0 (http://creativecommons.org/licenses/by/4.0/)",
      "source": "https://sketchfab.com/3d-models/low-poly-room-a6bf7976f3ac401e96907aa5b8a0c1c1",
      "title": "Low Poly Room"
    },
    "generator": "Sketchfab-12.67.0",
    "version": "2.0"
  },
  "bufferViews": [
    {
      "buffer": 0,
      "byteLength": 78192,
      "name": "floatBufferViews",
      "target": 34963
    },
    {
      "buffer": 0,
      "byteLength": 83352,
      "byteOffset": 78192,
      "byteStride": 8,
      "name": "floatBufferViews",
      "target": 34962
    },
    {
      "buffer": 0,
      "byteLength": 250056,
      "byteOffset": 161544,
      "byteStride": 12,
      "name": "floatBufferViews",
      "target": 34962
    }
  ],
  "buffers": [
    {
      "byteLength": 411600,
      "uri": "scene.bin"
    }
  ],
  "images": [
    {
      "uri": "textures/UberTexture_baseColor.png"
    }
  ],
  "materials": [
    {
      "doubleSided": true,
      "name": "UberTexture",
      "pbrMetallicRoughness": {
        "baseColorTexture": {
          "index": 0
        },
        "metallicFactor": 0.0,
        "roughnessFactor": 0.9577051495
      }
    },
    {
      "alphaMode": "BLEND",
      "doubleSided": true,
      "name": "PC_Glass",
      "pbrMetallicRoughness": {
        "baseColorFactor": [
          0.8,
          0.8,
          0.8,
          0.16634908536585366
        ],
        "metallicFactor": 0.0,
        "roughnessFactor": 0.9577051495
      }
    },
    {
      "doubleSided": true,
      "name": "Floor",
      "pbrMetallicRoughness": {
        "baseColorFactor": [
          0.7883003048780488,
          0.7883003048780488,
          0.7883003048780488,
          1.0
        ],
        "baseColorTexture": {
          "index": 0
        },
        "metallicFactor": 0.0,
        "roughnessFactor": 0.8004954268292683
      }
    }
  ],
  "meshes": [
    {
      "name": "Cube.002_UberTexture_0",
      "primitives": [
        {
          "attributes": {
            "NORMAL": 1,
            "POSITION": 0,
            "TEXCOORD_0": 2
          },
          "indices": 3,
          "material": 0,
          "mode": 4
        }
      ]
    },
    {
      "name": "Cube.002_PC_Glass_0",
      "primitives": [
        {
          "attributes": {
            "NORMAL": 5,
            "POSITION": 4,
            "TEXCOORD_0": 6
          },
          "indices": 7,
          "material": 1,
          "mode": 4
        }
      ]
    },
    {
      "name": "Cube.002_Floor_0",
      "primitives": [
        {
          "attributes": {
            "NORMAL": 9,
            "POSITION": 8,
            "TEXCOORD_0": 10
          },
          "indices": 11,
          "material": 2,
          "mode": 4
        }
      ]
    }
  ],
  "nodes": [
    {
      "children": [
        1
      ],
      "matrix": [
        1.0,
        0.0,
        0.0,
        0.0,
        0.0,
        2.220446049250313e-16,
        -1.0,
        0.0,
        0.0,
        1.0,
        2.220446049250313e-16,
        0.0,
        0.0,
        0.0,
        0.0,
        1.0
      ],
      "name": "Sketchfab_model"
    },
    {
      "children": [
        2
      ],
      "matrix": [
        1.0,
        0.0,
        0.0,
        0.0,
        0.0,
        0.0,
        1.0,
        0.0,
        0.0,
        -1.0,
        0.0,
        0.0,
        0.0,
        0.0,
        0.0,
        1.0
      ],
      "name": "691a46a2b6fb49679e2f859d0dbcfcde.fbx"
    },
    {
      "children": [
        3
      ],
      "name": "RootNode"
    },
    {
      "children": [
        4,
        5,
        6
      ],
      "matrix": [
        16.094741821289063,
        0.0,
        0.0,
        0.0,
        -0.0,
        -2.622166272160536e-06,
        -16.09474182128885,
        0.0,
        0.0,
        16.09474182128885,
        -2.622166272160536e-06,
        0.0,
        -126.85701751708984,
        16.42538070678711,
        29.040632247924805,
        1.0
      ],
      "name": "Cube.002"
    },
    {
      "mesh": 0,
      "name": "Cube.002_UberTexture_0"
    },
    {
      "mesh": 1,
      "name": "Cube.002_PC_Glass_0"
    },
    {
      "mesh": 2,
      "name": "Cube.002_Floor_0"
    }
  ],
  "samplers": [
    {
      "magFilter": 9729,
      "minFilter": 9987,
      "wrapS": 10497,
      "wrapT": 10497
    }
  ],
  "scene": 0,
  "scenes": [
    {
      "name": "Sketchfab_Scene",
      "nodes": [
        0
      ]
    }
  ],
  "textures": [
    {
      "sampler": 0,
      "source": 0
    }
  ]
}
